<svg width="130" height="26" viewBox="0 0 130 26" fill="none" xmlns="http://www.w3.org/2000/svg">
<path d="M126.463 6.24995C126.463 7.26417 127.269 8.04434 128.232 8.04434C129.194 8.04434 130 7.29018 130 6.24995C130 5.23573 129.194 4.48157 128.232 4.48157C127.295 4.48157 126.463 5.26174 126.463 6.24995ZM126.801 6.24995C126.801 5.39177 127.425 4.74162 128.258 4.74162C129.064 4.74162 129.714 5.39177 129.714 6.24995C129.714 7.10814 129.09 7.78429 128.258 7.78429C127.425 7.78429 126.801 7.13415 126.801 6.24995ZM127.399 7.29018V5.23573H128.206C128.414 5.23573 128.544 5.26174 128.648 5.28774C128.726 5.31375 128.804 5.39177 128.856 5.49579C128.908 5.59981 128.934 5.70383 128.934 5.80786C128.934 5.96389 128.882 6.09392 128.804 6.19794C128.726 6.30196 128.596 6.35398 128.44 6.37998C128.518 6.43199 128.596 6.484 128.648 6.56202C128.7 6.61403 128.778 6.74406 128.856 6.90009L129.09 7.29018H128.648L128.362 6.84808C128.258 6.69205 128.206 6.58803 128.154 6.53601C128.127 6.484 128.075 6.458 128.049 6.458C127.997 6.43199 127.945 6.43199 127.867 6.43199H127.789V7.29018H127.399ZM127.789 6.09392H128.075C128.258 6.09392 128.362 6.09392 128.414 6.06791C128.466 6.04191 128.492 6.0159 128.518 5.9899C128.544 5.93788 128.544 5.88587 128.544 5.83386C128.544 5.75584 128.518 5.70383 128.492 5.67783C128.466 5.62582 128.414 5.59981 128.362 5.59981C128.336 5.59981 128.232 5.59981 128.075 5.59981H127.789V6.09392Z" fill="#333333"/>
<path fill-rule="evenodd" clip-rule="evenodd" d="M15.185 6.30194L15.133 0.0345729C15.133 0.0345729 8.16345 -0.693586 3.17036 4.53355C-2.00477 9.94273 0.127695 17.7444 2.72826 20.8391C5.40685 24.0118 9.64577 26.1183 15.445 24.922C21.4003 23.6997 22.9867 19.2788 22.9867 15.4559C22.9867 10.8529 19.5799 6.74404 15.185 6.30194ZM11.4402 22.1914C7.9294 21.7233 5.71891 20.189 3.97653 17.0943C2.18214 13.8956 2.10413 4.50755 12.1683 3.05123V6.30194C12.1683 6.30194 8.44951 6.61401 6.65512 9.7867C4.80872 13.0634 6.5511 16.6262 8.81359 17.9785C11.3101 19.4608 13.7807 19.0707 15.237 18.8627V9.37061C15.237 9.37061 19.944 10.3328 19.97 15.846C19.996 20.6831 15.315 22.7115 11.4402 22.1914ZM12.1163 9.29259C11.0241 9.3186 8.8916 10.1768 8.91761 12.6993C8.8916 14.8318 10.3739 16.1061 12.1163 16.1061V9.29259Z" fill="#20B251"/>
<path d="M41.2687 10.8789C40.0204 9.68264 38.174 9.0325 36.5617 9.0325C32.6088 9.0325 30.1903 12.0492 30.1903 15.846C30.1903 18.8887 31.9587 22.0353 36.5617 22.0353C38.018 22.0353 39.2923 21.7233 40.7486 20.553V17.2503H36.0156V14.1296H43.9473V21.9313C42.1269 24.0118 39.8384 25.26 36.5877 25.26C29.6442 25.26 26.8096 20.683 26.8096 15.82C26.8096 10.6188 30.0603 5.8078 36.5877 5.8078C39.0842 5.8078 41.5548 6.77001 43.4532 8.64242L41.2687 10.8789Z" fill="#20B251"/>
<path d="M50.0585 8.14832C50.0585 10.6709 46.2617 10.6709 46.2617 8.14832C46.2617 5.62577 50.0585 5.62577 50.0585 8.14832ZM46.5478 11.7631V24.844H49.7725V11.7631H46.5478Z" fill="#20B251"/>
<path d="M63.0097 11.8152H66.1044V24.844H63.0617L62.9057 22.9456C62.1775 24.4799 60.1231 25.2081 58.6667 25.2341C54.8179 25.2601 51.9573 22.8936 51.9573 18.3166C51.9573 13.8176 54.9479 11.4771 58.7448 11.5031C60.4871 11.5031 62.1515 12.3093 62.9057 13.6095L63.0097 11.8152ZM55.182 18.3166C55.182 20.7871 56.8984 22.2694 59.0308 22.2694C64.1019 22.2694 64.1019 14.3637 59.0308 14.3637C56.8984 14.3897 55.182 15.846 55.182 18.3166Z" fill="#20B251"/>
<path d="M78.4307 24.844V18.0305C78.4307 16.0541 77.3385 14.5458 75.284 14.5458C73.3076 14.5458 71.9553 16.2101 71.9553 18.1866V24.844H68.7566V11.7892H71.6432L71.8513 13.5575C73.1776 12.2573 74.5038 11.6071 76.1422 11.6071C79.2109 11.6071 81.6554 13.8956 81.6554 18.0045V24.844H78.4307Z" fill="#20B251"/>
<path d="M94.0081 24.844V18.0305C94.0081 16.0541 92.9159 14.5458 90.8614 14.5458C88.885 14.5458 87.5327 16.2101 87.5327 18.1866V24.844H84.334V11.7892H87.2206L87.4287 13.5575C88.755 12.2573 90.0812 11.6071 91.7196 11.6071C94.7883 11.6071 97.2328 13.8956 97.2328 18.0045V24.844H94.0081Z" fill="#20B251"/>
<path d="M103.527 8.14832C103.527 10.6709 99.7297 10.6709 99.7297 8.14832C99.7297 5.62577 103.527 5.62577 103.527 8.14832ZM100.016 11.7631V24.844H103.241V11.7631H100.016Z" fill="#20B251"/>
<path d="M115.723 24.844V18.0305C115.723 16.0541 114.63 14.5458 112.576 14.5458C110.6 14.5458 109.247 16.2101 109.247 18.1866V24.844H106.049V11.7892H108.935L109.143 13.5575C110.47 12.2573 111.796 11.6071 113.434 11.6071C116.503 11.6071 118.947 13.8956 118.947 18.0045V24.844H115.723Z" fill="#20B251"/>
<path d="M125.241 8.14832C125.241 10.6709 121.444 10.6709 121.444 8.14832C121.444 5.62577 125.241 5.62577 125.241 8.14832ZM121.73 11.7631V24.844H124.955V11.7631H121.73Z" fill="#20B251"/>
</svg>
